<?xml version="1.0" standalone="no"?>
<!DOCTYPE svg PUBLIC "-//W3C//DTD SVG 20010904//EN"
 "http://www.w3.org/TR/2001/REC-SVG-20010904/DTD/svg10.dtd">
<svg version="1.0" xmlns="http://www.w3.org/2000/svg"
 width="70.000000pt" height="70.000000pt" viewBox="0 0 70.000000 70.000000"
 preserveAspectRatio="xMidYMid meet">
<metadata>
Created by potrace 1.11, written by Peter Selinger 2001-2013
</metadata>
<g transform="translate(0.000000,70.000000) scale(0.100000,-0.100000)"
fill="#000000" stroke="none">
<path d="M308 638 c-2 -15 -11 -24 -25 -26 -21 -3 -23 -9 -23 -68 l0 -64 -45
0 c-38 0 -45 -3 -45 -20 0 -13 -7 -20 -20 -20 -15 0 -20 -7 -20 -25 0 -18 -5
-25 -20 -25 -13 0 -20 -7 -20 -20 0 -15 -7 -20 -25 -20 -18 0 -25 -5 -25 -20
0 -13 -7 -20 -20 -20 -15 0 -20 -7 -20 -25 0 -18 5 -25 20 -25 13 0 20 -7 20
-20 0 -15 7 -20 25 -20 23 0 25 -4 25 -45 0 -38 3 -45 20 -45 13 0 20 -7 20
-20 0 -17 7 -20 45 -20 41 0 45 -2 45 -25 l0 -25 110 0 110 0 0 25 c0 25 1 25
85 25 78 0 85 2 85 20 0 15 7 20 25 20 23 0 25 4 25 45 0 38 3 45 20 45 13 0
20 7 20 20 0 13 -7 20 -20 20 -19 0 -20 7 -20 90 0 89 0 90 -25 90 -18 0 -25
5 -25 20 0 13 -7 20 -20 20 -18 0 -20 7 -20 65 0 58 -2 65 -20 65 -15 0 -20 7
-20 25 0 20 -5 25 -25 25 -20 0 -25 -5 -25 -25 0 -18 -5 -25 -20 -25 -15 0
-20 7 -20 25 0 20 -5 25 -25 25 -20 0 -25 -5 -25 -25 0 -18 -5 -25 -20 -25
-15 0 -20 7 -20 25 0 33 -37 35 -42 3z m82 -178 c0 -13 -7 -20 -20 -20 -17 0
-20 -7 -20 -45 0 -38 3 -45 19 -45 16 0 20 8 23 43 2 35 7 43 26 45 14 2 22
10 22 23 0 17 7 19 65 19 58 0 65 -2 65 -20 0 -13 7 -20 20 -20 18 0 20 -7 20
-65 l0 -65 -85 0 c-78 0 -85 2 -85 20 0 15 -7 20 -25 20 -33 0 -35 -37 -2 -42
14 -2 23 -11 25 -25 3 -22 7 -23 108 -23 97 0 104 -1 104 -20 0 -19 -7 -20
-105 -20 -98 0 -105 -1 -105 -20 0 -13 -7 -20 -20 -20 -13 0 -20 7 -20 20 0
13 7 20 20 20 13 0 20 7 20 20 0 15 -7 20 -25 20 -18 0 -25 -5 -25 -20 0 -18
-7 -20 -65 -20 -58 0 -65 2 -65 20 0 15 7 20 25 20 20 0 25 5 25 25 0 20 -5
25 -25 25 -18 0 -25 5 -25 20 0 18 -7 20 -65 20 -58 0 -65 2 -65 20 0 15 7 20
25 20 20 0 25 5 25 25 0 23 4 25 40 25 33 0 40 3 40 20 0 18 7 20 65 20 58 0
65 -2 65 -20z m-172 -177 c3 -22 0 -23 -62 -23 -64 0 -66 1 -66 25 0 25 1 26
63 23 56 -3 62 -5 65 -25z m392 -133 c0 -18 -7 -20 -85 -20 -78 0 -85 2 -85
20 0 18 7 20 85 20 78 0 85 -2 85 -20z"/>
<path d="M520 395 c0 -41 2 -45 25 -45 23 0 25 4 25 45 0 41 -2 45 -25 45 -23
0 -25 -4 -25 -45z"/>
</g>
</svg>
